<svg width="480" height="360" viewBox="0 0 480 360" fill="none" xmlns="http://www.w3.org/2000/svg">
  <defs>
    <linearGradient id="staitGradient" x1="120" y1="40" x2="360" y2="240" gradientUnits="userSpaceOnUse">
      <stop offset="0" stop-color="#3B5BDB"/>
      <stop offset="0.3" stop-color="#8E44AD"/>
      <stop offset="0.5" stop-color="#E74C7A"/>
      <stop offset="0.7" stop-color="#F39C12"/>
      <stop offset="0.85" stop-color="#9ACD32"/>
      <stop offset="1" stop-color="#3CBEC4"/>
    </linearGradient>
  </defs>

  <g stroke="url(#staitGradient)" stroke-width="5" stroke-linecap="round" stroke-linejoin="round">
    <path d="M240 40L120 110V220L240 290L360 220V110L240 40Z"/>
    <path d="M120 110L190 150H290L360 110"/>
    <path d="M120 170L190 190H290L360 170"/>
    <path d="M240 40L190 150"/>
    <path d="M240 40L290 150"/>
    <path d="M120 170L190 190"/>
    <path d="M290 190L240 290"/>
    <path d="M190 190L240 290"/>
    <path d="M290 190L360 220"/>
    <path d="M190 150L120 170"/>
    <path d="M290 150L360 170"/>
  </g>

  <text x="240" y="345" text-anchor="middle" fill="#1F2A44" font-family="Avenir Next, Inter, system-ui, sans-serif" font-size="78" font-weight="500" letter-spacing="1">
    stait
  </text>
</svg>
